<svg xmlns="http://www.w3.org/2000/svg" width="12.447" height="13.129" viewBox="0 0 12.447 13.129">
    <path id="prefix__adchoices" d="M1.636 13.129a3.05 3.05 0 0 0 1.575-.591c.394-.2.788-.46 1.247-.656 2.1-1.116 4.2-2.3 6.3-3.479a5.6 5.6 0 0 0 1.972-1.248 1.046 1.046 0 0 0 .263-.788c-.2-.722-1.116-.985-1.707-1.313-1.444-.788-2.954-1.641-4.4-2.429-.525-.328-1.313-.919-1.969-.46a.785.785 0 0 0-.46.46 3.71 3.71 0 0 0 0 .853v2.1c0 .591-.066 1.05.328 1.313a.878.878 0 0 0 .591.066c.656-.263.46-1.444.46-2.363v-.721c1.116.591 2.232 1.182 3.348 1.707.394.2 1.05.394 1.182.919.131.591-1.116 1.05-1.51 1.247l-4.529 2.56c-.328.2-1.182.853-1.707.656a.485.485 0 0 1-.328-.394 4.65 4.65 0 0 1-.066-.985V3.939a3.6 3.6 0 0 1 .131-1.51c.46-.656 1.51.525 1.838-.525A.731.731 0 0 0 4 1.247 5.038 5.038 0 0 0 2.1.131 1.942 1.942 0 0 0 1.439 0C.323.2.586 1.969.586 3.282v6.5c0 .985-.131 2.3.263 2.888.2.328.394.328.788.46zM5.05 8.862a.725.725 0 0 0 .131-1.444.739.739 0 0 0-.788.919c.132.328.329.394.657.525z" transform="translate(-.559)" style="fill:#00aecd"/>
</svg>
